<svg width="115" height="36" viewBox="0 0 115 36" fill="none" xmlns="http://www.w3.org/2000/svg">
<path d="M35.554 22.703C35.7226 21.5227 35.8792 20.2702 35.9454 18.9694C35.9454 9.04529 27.87 1 17.9038 1C14.676 1 11.4723 1.86716 8.69623 3.4991C5.99841 5.08889 3.72814 7.37722 2.18653 10.0991C0.295647 13.4473 -0.44505 17.4338 0.265537 21.2096C0.933971 24.7685 2.8369 28.0324 5.5287 30.4593C8.23255 32.8981 11.7072 34.4036 15.3083 34.8794C16.2116 34.9998 17.139 35.0179 18.0483 34.9757C22.9802 34.7589 27.3522 32.4887 30.4113 29.008C31.7482 32.1695 34.5363 34.8613 40.3114 34.2772C39.5285 34.0242 33.7595 34.0664 35.5661 22.697M19.5718 30.2846C18.3674 30.923 16.9463 31.0855 15.6455 30.6761C10.4908 29.0622 6.63071 24.3651 6.37779 18.6864C6.10078 12.4356 10.286 6.98579 16.1152 5.40203C17.6749 4.97447 19.343 5.16115 20.7702 5.91389L20.7883 5.92594C20.6919 5.92594 20.6016 5.92594 20.5052 5.93798C15.224 6.29327 10.9364 9.94256 9.52124 14.73C9.53328 14.6999 9.54533 14.6698 9.55737 14.6457C9.49715 14.8083 9.43693 14.9709 9.38273 15.1395C7.46174 21.1313 11.2857 27.3459 17.5424 29.7125C18.2169 29.9655 18.9034 30.1521 19.5839 30.2666L19.5658 30.2786L19.5718 30.2846ZM25.9189 24.1904C25.0397 25.6176 23.9678 26.9244 22.7514 28.0324C22.1613 28.5684 21.3122 28.7189 20.5715 28.4239C15.0735 26.2198 13.1404 21.7877 14.7061 16.922C15.5432 14.3085 17.3196 12.2429 19.5839 11.153C23.1729 9.42468 27.3221 11.6889 27.8399 15.6212C28.2434 18.6984 27.2799 22.0647 25.925 24.1904" fill="#8F63E5"/>
<path d="M48.1028 7.48291H51.575V28.9939H48.1028V7.48291Z" fill="#8F63E5"/>
<path d="M53.3142 7.48291H76.6132V10.6867H66.6968V28.9939H63.2245V10.6867H53.3081V7.48291H53.3142Z" fill="#8F63E5"/>
<path d="M78.4255 7.48291H81.8978V28.9939H78.4255V7.48291Z" fill="#8F63E5"/>
<path d="M89.2269 25.9244H105.288V29H85.7913V7.55005H89.2269V25.9244Z" fill="#8F63E5"/>
<path d="M110.177 9.83233C110.177 11.1566 109.121 12.2123 107.766 12.2123C106.411 12.2123 105.319 11.1566 105.319 9.83233C105.319 8.50811 106.411 7.45239 107.766 7.45239C109.121 7.45239 110.177 8.50811 110.177 9.83233ZM107.827 11.7119C108.816 11.7119 109.579 10.8514 109.579 9.82623C109.579 8.80102 108.785 7.94059 107.76 7.94059C106.735 7.94059 105.911 8.76441 105.911 9.82623C105.911 10.888 106.704 11.7119 107.827 11.7119ZM108.724 10.4609C108.791 10.827 108.858 10.9552 108.92 11.0589H108.328C108.26 10.9613 108.193 10.7599 108.132 10.4609C108.065 10.229 107.968 10.1313 107.669 10.1313H107.406V11.0589H106.845V8.70949C107.107 8.64236 107.406 8.61185 107.772 8.61185C108.236 8.61185 108.797 8.77661 108.797 9.33804C108.797 9.66757 108.535 9.83233 108.334 9.89946V9.92997C108.566 9.96048 108.663 10.1619 108.73 10.4609H108.724ZM108.23 9.36855C108.23 9.06953 107.931 9.0024 107.699 9.0024H107.4V9.72859H107.73C107.992 9.72859 108.224 9.63095 108.224 9.36245L108.23 9.36855Z" fill="#8F63E5"/>
</svg>
